Coordinates
version=1
nRows=11
nColumns=36
inDegrees=yes

Units are S.I. units (second, meters, Newtons, ...)
If the header above contains a line with 'inDegrees', this indicates whether rotational values are in degrees (yes) or radians (no).

endheader
time	pelvis_tilt	pelvis_list	pelvis_rotation	pelvis_tx	pelvis_ty	pelvis_tz	hip_flexion_r	hip_adduction_r	hip_rotation_r	knee_angle_r	knee_angle_r_beta	ankle_angle_r	subtalar_angle_r	mtp_angle_r	hip_flexion_l	hip_adduction_l	hip_rotation_l	knee_angle_l	knee_angle_l_beta	ankle_angle_l	subtalar_angle_l	mtp_angle_l	lumbar_extension	lumbar_bending	lumbar_rotation	arm_flex_r	arm_add_r	arm_rot_r	elbow_flex_r	pro_sup_r	arm_flex_l	arm_add_l	arm_rot_l	elbow_flex_l	pro_sup_l
      1.24000000	      2.82733072	     -5.51302189	      1.83391802	      3.27896543	      0.99729813	      0.24513129	     32.44156687	      5.68981355	     -9.44234066	     12.76976287	      0.22287441	     -6.64627535	      0.61992929	    -36.84445025	    -23.61299052	     -1.14433192	      0.38299094	    102.03843972	      1.78090674	    -11.60817729	    -20.23900016	     -4.08912719	    -13.53515261	      8.05883568	     -9.46265641	    -49.81051413	    -22.44560103	    -12.77657839	     75.38459997	     90.00021046	     -2.88580844	    -12.71184399	      2.35712656	    118.00306219	     90.00021046
      1.24400000	      3.04649627	     -5.82006097	      1.55847657	      3.30562112	      0.99539531	      0.24560779	     31.86429521	      6.10062903	    -10.16048344	     14.09720384	      0.24604262	     -6.57298348	      0.24529215	    -36.30807208	    -22.38958546	     -1.37227892	      0.02398893	    105.73645822	      1.84544934	    -11.44571131	    -20.59034170	     -0.47981838	    -14.11610358	      8.37677944	     -8.69002165	    -48.38516729	    -22.96675793	    -12.35204342	     75.46831187	     90.00021046	     -3.66327351	    -12.24976691	      1.99787966	    115.20998709	     90.00021046
      1.24800000	      3.16221256	     -6.01639723	      1.16952807	      3.33202322	      0.99320887	      0.24588128	     31.45377718	      6.38655032	    -10.78127989	     15.68629783	      0.27377754	     -6.57691208	      0.04016651	    -35.77047978	    -20.95726517	     -1.37109244	     -0.25543100	    109.43570433	      1.91001336	    -11.25606441	    -20.22652933	     -3.75609926	    -14.64043542	      8.59244702	     -7.81228300	    -46.91033093	    -23.55495407	    -11.90799975	     75.54620295	     90.00021046	     -4.39727143	    -11.74639162	      1.64085080	    112.32747748	     90.00021046
      1.25200000	      3.25440762	     -6.25770347	      0.80610384	      3.35833965	      0.99088115	      0.24607802	     31.06186235	      6.66681481	    -11.42058229	     17.38724917	      0.30346475	     -6.72302083	     -0.16685535	    -35.78175772	    -19.44694465	     -1.46337027	     -0.50140658	    113.08454163	      1.97369758	    -10.94257947	    -19.81401911	     -3.84121435	    -15.12833389	      8.84029029	     -6.98169916	    -45.31758668	    -24.22055641	    -11.36540426	     75.56359309	     90.00021046	     -5.08917145	    -11.22945720	      1.23502230	    109.33964922	     90.00021046
      1.25600000	      3.30373904	     -6.41766279	      0.37952342	      3.38455222	      0.98833610	      0.24623406	     30.75852694	      6.85948301	    -11.78089938	     19.30847824	      0.33699652	     -6.86148415	     -0.30958720	    -35.89486123	    -17.81240140	     -1.43652773	     -0.67101803	    116.68101917	      2.03646796	    -10.54152457	    -19.07377942	     -4.09809347	    -15.61127687	      9.01102459	     -6.08690049	    -43.66427195	    -24.91619215	    -10.80624861	     75.55464618	     90.00021046	     -5.72532240	    -10.68787494	      0.79387298	    106.24540967	     90.00021046
      1.26000000	      3.49070860	     -6.70020340	     -0.07966302	      3.41080693	      0.98584176	      0.24652199	     30.26271549	      7.19351625	    -11.85324514	     21.19742591	      0.36996488	     -7.12762967	     -0.32539067	    -35.80846060	    -16.30816185	     -1.61801392	     -0.92186341	    120.16073674	      2.09720049	    -10.05039096	    -18.24337013	     -4.33247685	    -16.24990722	      9.27478825	     -5.08852219	    -41.97058343	    -25.65970762	    -10.20784013	     75.56413127	     90.00021046	     -6.29257988	    -10.17022039	      0.42923822	    103.10079279	     90.00021046
      1.26400000	      3.72071157	     -7.10405177	     -0.25976759	      3.43748221	      0.98333425	      0.24705431	     29.60433753	      7.58158051	    -12.00952776	     22.95189909	      0.40058621	     -7.32322659	     -0.36415908	    -35.61509019	    -14.77622069	     -2.13000082	     -0.88940021	    123.54792936	      2.15631815	     -9.54686179	    -17.10422712	     -4.63205056	    -16.84350402	      9.65297945	     -4.31258259	    -40.17873824	    -26.25796410	     -9.59067774	     75.41563398	     90.00021046	     -6.89236833	     -9.74829817	      0.05522918	     99.90800626	     90.00021046
      1.26800000	      4.00258121	     -7.43976856	     -0.37785003	      3.46414529	      0.98077748	      0.24741930	     28.80585598	      7.87608585	    -11.90402864	     24.53834530	      0.42827492	     -7.54084742	      0.01145965	    -35.41417245	    -13.20826892	     -2.55998058	     -0.68478654	    126.87385204	      2.21436645	     -8.84117893	    -15.57495262	     -4.98928347	    -17.47158014	      9.95956426	     -3.61840114	    -38.30010423	    -26.94202872	     -8.81535867	     75.23798610	     90.00021046	     -7.47213311	     -9.38526523	     -0.33281510	     96.71914494	     90.00021046
      1.27200000	      4.14521393	     -7.75033704	     -0.46987589	      3.49038897	      0.97793728	      0.24825358	     28.10896659	      8.32084506	    -11.15820882	     25.97467920	      0.45334367	     -7.34888011	     -0.57626507	    -33.34781424	    -11.32944051	     -3.05660082	     -0.31745086	    130.16021208	      2.27172426	     -8.38471195	    -14.15665906	     -6.21128377	    -18.00546984	     10.18871984	     -2.97658243	    -36.21110989	    -27.51118274	     -7.98535699	     74.93481032	     90.00021046	     -7.97341849	     -9.12527451	     -0.72651406	     93.49933696	     90.00021046
      1.27600000	      4.16311771	     -8.10782893	     -0.77938422	      3.51637987	      0.97479916	      0.24970198	     27.51145188	      9.03326376	    -10.00196432	     27.35235174	      0.47738860	     -6.49010281	     -0.83797409	    -29.15941570	     -9.24134635	     -3.64423056	      0.05762761	    133.41024001	      2.32844794	     -7.60048729	    -12.14495384	     -6.28384012	    -18.46821726	     10.38300803	     -2.08928209	    -34.07902091	    -28.05219818	     -7.13307772	     74.65887101	     90.00021046	     -8.42268139	     -8.93876254	     -1.06591406	     90.22856581	     90.00021046
      1.28000000	      4.07477447	     -8.32788656	     -1.29114179	      3.54225613	      0.97141309	      0.25135885	     26.97021230	      9.75495941	     -8.92476961	     29.01373208	      0.50638515	     -3.16385000	     -0.91413053	    -20.23152266	     -7.00263950	     -4.09761419	      0.17064834	    136.34824735	      2.37972585	     -7.36814028	    -10.69514079	     -7.19764093	    -18.84861209	     10.37515863	     -1.07187920	    -31.84995316	    -28.58492402	     -6.26733983	     74.35260443	     90.00021046	     -8.85356739	     -8.77109946	     -1.37377319	     87.00327993	     90.00021046
